# xmcd
#
# Track frame offsets: 
#        150
#        13726
#        17751
#        22239
#        26168
#        29935
#        39442
#        43053
#        45999
#        54214
#        62435
#        71652
#        90295
#        99562
#        107949
#        115223
#        123001
#        140373
#        142672
#        144124
#        164759
#        177937
#        204406
#        212652
#        214179
#        219684
#        239812
#        253156
#        280345
#        285910
#
# Disc length: 3965 seconds
#
# Revision: 0
# Processed by: cddbd v1.5.2PL0 Copyright (c) Steve Scherf et al.
# Submitted via: ExactAudioCopy v0.95b3
#
DISCID=bc0f7b1e
DTITLE=Jimi Hendrix  - Unsurpassed Masters Volume 2 
DYEAR=1900
DGENRE=
TTITLE0=Mannish Boy Session Part Two 22 April 1969
TTITLE1=Mannish Boy Session Part Two 22 April 1969
TTITLE2=Mannish Boy Session Part Two 22 April 1969
TTITLE3=Mannish Boy Session Part Two 22 April 1969
TTITLE4=Mannish Boy Session Part Two 22 April 1969
TTITLE5=Mannish Boy Session Part Two 22 April 1969
TTITLE6=Mannish Boy Session Part Two 22 April 1969
TTITLE7=Mannish Boy Session Part Two 22 April 1969
TTITLE8=Mannish Boy Session Part Two 22 April 1969
TTITLE9=Mannish Boy Session Part Two 22 April 1969
TTITLE10=Mannish Boy Session Part Two 22 April 1969
TTITLE11=Mannish Boy Session Part Two 22 April 1969
TTITLE12=Mannish Boy Session Part Two 22 April 1969
TTITLE13=Mannish Boy Session Part Two 22 April 1969
TTITLE14=Mannish Boy Session Part Two 22 April 1969
TTITLE15=Mannish Boy Session Part Two 22 April 1969
TTITLE16=Mannish Boy Session Part Two 22 April 1969
TTITLE17=Mannish Boy Session Part Three 22 April 1969
TTITLE18=Mannish Boy Session Part Three 22 April 1969
TTITLE19=Mannish Boy Session Part Three 22 April 1969
TTITLE20=Mannish Boy Session Part Three 22 April 1969
TTITLE21=Mannish Boy Session Part Three 22 April 1969
TTITLE22=Mannish Boy Session Part Three 22 April 1969
TTITLE23=Mannish Boy Session Part Three 22 April 1969
TTITLE24=Mannish Boy Session Part Three 22 April 1969
TTITLE25=Mannish Boy Session Part Three 22 April 1969
TTITLE26=Mannish Boy Session Part Three 22 April 1969
TTITLE27=Mannish Boy Session Part Three 22 April 1969
TTITLE28=Mannish Boy Session Part Three 22 April 1969
TTITLE29=Mannish Boy Session Part Three 22 April 1969
EXTD=
EXTT0=
EXTT1=
EXTT2=
EXTT3=
EXTT4=
EXTT5=
EXTT6=
EXTT7=
EXTT8=
EXTT9=
EXTT10=
EXTT11=
EXTT12=
EXTT13=
EXTT14=
EXTT15=
EXTT16=
EXTT17=
EXTT18=
EXTT19=
EXTT20=
EXTT21=
EXTT22=
EXTT23=
EXTT24=
EXTT25=
EXTT26=
EXTT27=
EXTT28=
EXTT29=
PLAYORDER=
